# xmcd
#
# Track frame offsets: 
#        150
#        12945
#        25340
#        36342
#        51812
#        67205
#        78837
#        94225
#        105240
#        128697
#        141980
#        155680
#        172142
#        183527
#        198300
#
# Disc length: 2710 seconds
#
# Revision: 2
# Processed by: cddbd v1.5.2PL0 Copyright (c) Steve Scherf et al.
# Submitted via: ExactAudioCopy v1.0b3
#
DISCID=d00a940f
DTITLE=Roy Clark - Greatest Greatest Hits Volume Two
DYEAR=1900
DGENRE=Country
TTITLE0=The Great Divide
TTITLE1=You're Gonna Love Yourself In The Morning
TTITLE2=Wildwood Flower (Instrumental)
TTITLE3=We Can't Build A Fire In The Rain
TTITLE4=September Song
TTITLE5=Rollin' in My Sweet Baby's Arms
TTITLE6=Shoulder To Shoulder (Arm And Arm)
TTITLE7=Chain Gang Of Love
TTITLE8=Malaguena (Instrumental)
TTITLE9=Another Lonely Night With You
TTITLE10=I Have A Dream, I Have A Dream
TTITLE11=Then She's A Lover
TTITLE12=Do You Believe This Town
TTITLE13=A Simple Thing As Love
TTITLE14=Alabama jubilee (Instrumental)
EXTD=ID3G:   2
EXTT0=
EXTT1=
EXTT2=
EXTT3=
EXTT4=
EXTT5=
EXTT6=
EXTT7=
EXTT8=
EXTT9=
EXTT10=
EXTT11=
EXTT12=
EXTT13=
EXTT14=
PLAYORDER=
